<svg width="20" height="20" viewBox="0 0 20 20" fill="none" xmlns="http://www.w3.org/2000/svg">
<rect width="20" height="20" rx="10" fill="#6552FE"/>
<path fill-rule="evenodd" clip-rule="evenodd" d="M10 4C12.0677 4 13.75 5.68225 13.75 7.75C13.75 9.5605 12.4592 11.0762 10.75 11.4235V12.25C10.75 12.6648 10.4148 13 10 13C9.58525 13 9.25 12.6648 9.25 12.25V10.75C9.25 10.3352 9.58525 10 10 10C11.2405 10 12.25 8.9905 12.25 7.75C12.25 6.5095 11.2405 5.5 10 5.5C8.7595 5.5 7.75 6.5095 7.75 7.75C7.75 8.16475 7.41475 8.5 7 8.5C6.58525 8.5 6.25 8.16475 6.25 7.75C6.25 5.68225 7.93225 4 10 4ZM9.25 15.25C9.25 14.8352 9.58525 14.5 10 14.5C10.4148 14.5 10.75 14.8352 10.75 15.25C10.75 15.6648 10.4148 16 10 16C9.58525 16 9.25 15.6648 9.25 15.25Z" fill="white"/>
</svg>
