<svg width="48" height="48" viewBox="0 0 48 48" fill="none" xmlns="http://www.w3.org/2000/svg">
<path fill-rule="evenodd" clip-rule="evenodd" d="M35.4358 16.3517C34.3355 16.2528 33.3626 17.0617 33.2636 18.1619L32.2354 29.4658L15.4558 12.6861C14.6751 11.9055 13.408 11.9055 12.6274 12.6861C11.8467 13.4668 11.8467 14.7339 12.6274 15.5145L29.407 32.2942L18.1032 33.3223C17.0015 33.4227 16.1926 34.3957 16.293 35.4945C16.392 36.5948 17.365 37.4066 18.4652 37.3047L34.0216 35.8905C34.1446 35.8806 34.2507 35.8283 34.3667 35.7972C34.4586 35.7731 34.5491 35.7618 34.6382 35.7236C34.8687 35.6232 35.0794 35.4889 35.2548 35.3135C35.4301 35.1382 35.5645 34.9274 35.6649 34.6969C35.7031 34.6078 35.7144 34.5173 35.7384 34.4254C35.7696 34.3094 35.8219 34.2034 35.8318 34.0803L37.246 18.524C37.3464 17.4251 36.5361 16.4507 35.4358 16.3517Z" fill="white"/>
</svg>
