<svg width="32" height="32" viewBox="0 0 32 32" fill="none" xmlns="http://www.w3.org/2000/svg">
<path opacity="0.4" d="M10.9366 17.5872L6.00434 18.0234C4.89744 18.0234 4 17.1173 4 15.9996C4 14.8819 4.89744 13.9757 6.00434 13.9757L10.9366 14.4119C11.805 14.4119 12.509 15.1228 12.509 15.9996C12.509 16.8779 11.805 17.5872 10.9366 17.5872Z" fill="#6552FE"/>
<path d="M27.4996 17.5069C27.4225 17.5847 27.1345 17.9137 26.864 18.1869C25.2858 19.8979 21.1651 22.6958 19.0095 23.552C18.6822 23.6886 17.8546 23.9794 17.411 24C16.9877 24 16.5834 23.9016 16.1979 23.7077C15.7165 23.436 15.3325 23.0072 15.1201 22.5019C14.9848 22.1524 14.7725 21.1023 14.7725 21.0832C14.5616 19.9361 14.4467 18.0709 14.4467 16.0088C14.4467 14.0466 14.5616 12.2578 14.7347 11.0916C14.7536 11.071 14.9659 9.76831 15.1972 9.32183C15.6205 8.50523 16.4481 8 17.3339 8H17.411C17.9884 8.01909 19.2015 8.52579 19.2015 8.54342C21.2422 9.39967 25.2654 12.0624 26.8829 13.8322C26.8829 13.8322 27.3396 14.2875 27.5374 14.571C27.8458 14.9793 27.9999 15.4845 27.9999 15.9897C27.9999 16.5537 27.8269 17.078 27.4996 17.5069Z" fill="#6552FE"/>
</svg>
