<svg width="80" height="80" viewBox="0 0 80 80" fill="none" xmlns="http://www.w3.org/2000/svg">
<rect width="80" height="80" rx="40" fill="#6552FE"/>
<path fill-rule="evenodd" clip-rule="evenodd" d="M32.3517 28.5046C32.2528 29.6049 33.0617 30.5779 34.1619 30.6769L45.4658 31.705L28.6861 48.4846C27.9055 49.2653 27.9055 50.5324 28.6861 51.3131C29.4668 52.0937 30.7339 52.0937 31.5145 51.3131L48.2942 34.5334L49.3223 45.8372C49.4227 46.9389 50.3957 47.7478 51.4945 47.6474C52.5948 47.5484 53.4066 46.5754 53.3047 45.4752L51.8905 29.9188C51.8806 29.7958 51.8283 29.6897 51.7972 29.5738C51.7731 29.4818 51.7618 29.3913 51.7236 29.3022C51.6232 29.0717 51.4889 28.861 51.3135 28.6856C51.1382 28.5103 50.9274 28.3759 50.6969 28.2755C50.6078 28.2373 50.5173 28.226 50.4254 28.202C50.3094 28.1709 50.2034 28.1185 50.0803 28.1086L34.524 26.6944C33.4251 26.594 32.4507 27.4044 32.3517 28.5046Z" fill="white"/>
</svg>
