<svg width="32" height="32" viewBox="0 0 32 32" fill="none" xmlns="http://www.w3.org/2000/svg">
<path d="M14.4128 10.9366L13.9766 6.00434C13.9766 4.89744 14.8827 4 16.0004 4C17.1181 4 18.0243 4.89744 18.0243 6.00434L17.5881 10.9366C17.5881 11.805 16.8772 12.509 16.0004 12.509C15.1221 12.509 14.4128 11.805 14.4128 10.9366Z" fill="white"/>
<path d="M14.4931 27.4992C14.4153 27.4221 14.0863 27.1341 13.8131 26.8636C12.1021 25.2854 9.3042 21.1648 8.44795 19.0091C8.31136 18.6819 8.02056 17.8542 8 17.4106C8 16.9873 8.0984 16.583 8.29227 16.1975C8.56398 15.7161 8.99284 15.3321 9.49807 15.1197C9.84762 14.9845 10.8977 14.7721 10.9168 14.7721C12.0639 14.5612 13.9291 14.4463 15.9912 14.4463C17.9534 14.4463 19.7422 14.5612 20.9084 14.7343C20.929 14.7532 22.2317 14.9656 22.6782 15.1968C23.4948 15.6201 24 16.4477 24 17.3335L24 17.4106C23.9809 17.9881 23.4742 19.2011 23.4566 19.2011C22.6003 21.2418 19.9376 25.2651 18.1678 26.8825C18.1678 26.8825 17.7125 27.3392 17.429 27.537C17.0207 27.8454 16.5155 27.9996 16.0103 27.9996C15.4463 27.9996 14.922 27.8265 14.4931 27.4992Z" fill="white"/>
</svg>
