<svg width="28" height="29" viewBox="0 0 28 29" fill="none" xmlns="http://www.w3.org/2000/svg">
<path opacity="0.2" d="M14 28.5C21.732 28.5 28 22.232 28 14.5C28 6.76801 21.732 0.5 14 0.5C6.26801 0.5 0 6.76801 0 14.5C0 22.232 6.26801 28.5 14 28.5Z" fill="#2B5EBA"/>
<path fill-rule="evenodd" clip-rule="evenodd" d="M19.2322 17.3538C21.1009 17.3538 22.6157 15.8161 22.6157 13.9191C22.6157 12.0222 21.1009 10.4844 19.2322 10.4844C17.3636 10.4844 15.8488 12.0222 15.8488 13.9191C15.8488 15.8161 17.3636 17.3538 19.2322 17.3538Z" fill="#2B5EBA"/>
<path fill-rule="evenodd" clip-rule="evenodd" d="M14.9565 9.19614C15.8576 9.19614 16.588 8.45465 16.588 7.53997C16.588 6.62528 15.8576 5.88379 14.9565 5.88379C14.0555 5.88379 13.3251 6.62528 13.3251 7.53997C13.3251 8.45465 14.0555 9.19614 14.9565 9.19614Z" fill="#2B5EBA"/>
<path fill-rule="evenodd" clip-rule="evenodd" d="M14.9562 21.9637C15.8572 21.9637 16.5876 21.2222 16.5876 20.3075C16.5876 19.3929 15.8572 18.6514 14.9562 18.6514C14.0551 18.6514 13.3247 19.3929 13.3247 20.3075C13.3247 21.2222 14.0551 21.9637 14.9562 21.9637Z" fill="#2B5EBA"/>
<path fill-rule="evenodd" clip-rule="evenodd" d="M13.8152 12.9895C13.7429 12.9161 13.6786 12.8264 13.6304 12.7366C13.6304 12.7366 12.8347 11.0396 10.1103 12.1329C9.96561 12.2063 9.82095 12.2716 9.67629 12.3205H9.66825C8.81635 12.5979 7.85998 12.394 7.1849 11.7086C6.22049 10.7378 6.22852 9.15502 7.1849 8.18416C8.14127 7.2133 9.69236 7.2133 10.6568 8.19232C10.9782 8.51866 11.1952 8.91843 11.2997 9.34267C11.2997 9.34267 11.9587 11.9208 14.1608 11.3007C14.209 11.2762 14.2653 11.2599 14.3135 11.2518H14.3215C14.643 11.1783 14.9966 11.2681 15.2538 11.5292C15.6556 11.9289 15.6556 12.5816 15.2538 12.9895C14.86 13.3974 14.217 13.3974 13.8152 12.9895ZM14.5145 16.4487C14.41 16.4487 14.3055 16.4324 14.2091 16.3997C14.2091 16.3997 12.4651 15.7797 11.2918 18.5128C11.2436 18.6678 11.1873 18.8147 11.115 18.9534V18.9615C10.7131 19.761 9.88534 20.3077 8.93701 20.3077C7.5788 20.3077 6.47776 19.1899 6.47776 17.8112C6.47776 16.4324 7.5788 15.3147 8.93701 15.3147C9.40314 15.3147 9.82909 15.4452 10.1988 15.6655C10.1988 15.6655 12.4571 17.0116 13.5822 14.9965C13.5983 14.9475 13.6224 14.8986 13.6546 14.8578V14.8496C13.8394 14.5641 14.1529 14.3764 14.5145 14.3764C15.0771 14.3764 15.5352 14.8415 15.5352 15.4126C15.5352 15.9837 15.0771 16.4487 14.5145 16.4487Z" fill="#2B5EBA"/>
</svg>
