<svg width="28" height="29" viewBox="0 0 28 29" fill="none" xmlns="http://www.w3.org/2000/svg">
<path opacity="0.4" d="M27.5802 17.8869C25.7104 25.387 18.1136 29.951 10.6127 28.0811C3.11524 26.2113 -1.4492 18.6145 0.421111 11.1149C2.29011 3.61395 9.88642 -0.950927 17.3852 0.918948C24.8857 2.78882 29.4497 10.3864 27.5798 17.8869H27.5802Z" fill="#F7931A"/>
<path fill-rule="evenodd" clip-rule="evenodd" d="M18.2159 12.8741C18.4047 11.6104 17.4425 10.931 16.1268 10.4778L16.5536 8.76591L15.5112 8.50622L15.0957 10.173C14.8221 10.1047 14.5407 10.0403 14.2611 9.97653L14.6796 8.29876L13.6382 8.03906L13.2111 9.75038C12.9843 9.69873 12.7617 9.64768 12.5457 9.59396L12.5469 9.58862L11.1098 9.2298L10.8326 10.3428C10.8326 10.3428 11.6057 10.52 11.5894 10.5309C12.0114 10.6363 12.088 10.9156 12.075 11.137L11.5888 13.0872C11.6179 13.0946 11.6556 13.1053 11.6971 13.122L11.5873 13.0946L10.9056 15.8266C10.8539 15.9548 10.7231 16.1472 10.428 16.0742C10.4384 16.0893 9.67063 15.8851 9.67063 15.8851L9.15332 17.0782L10.5097 17.4163C10.6628 17.4546 10.8141 17.4941 10.9637 17.5331C11.0606 17.5584 11.1567 17.5835 11.2522 17.608L10.821 19.3398L11.8619 19.5995L12.2892 17.8864C12.5733 17.9635 12.8493 18.0348 13.1194 18.1019L12.6938 19.8069L13.7358 20.0666L14.1671 18.3384C15.944 18.6747 17.2804 18.539 17.8423 16.9322C18.2955 15.6382 17.82 14.8917 16.8851 14.4047C17.5659 14.2471 18.0788 13.7992 18.2156 12.8741H18.2159ZM15.8343 16.212C15.5385 17.3996 13.6791 16.9082 12.8291 16.6836L12.829 16.6836C12.753 16.6635 12.6849 16.6455 12.6269 16.6311L13.1991 14.3371C13.2701 14.3549 13.3568 14.3743 13.4551 14.3964C14.3344 14.5937 16.1366 14.9981 15.8346 16.212H15.8343ZM13.6323 13.3327C14.3415 13.5219 15.8875 13.9343 16.1568 12.8554C16.4321 11.7517 14.9288 11.419 14.1946 11.2565C14.1121 11.2383 14.0393 11.2221 13.9798 11.2073L13.461 13.2879C13.5101 13.3001 13.5677 13.3155 13.6323 13.3327Z" fill="#F7931A"/>
</svg>
