<svg width="28" height="29" viewBox="0 0 28 29" fill="none" xmlns="http://www.w3.org/2000/svg">
<path opacity="0.2" d="M14 28.5C21.732 28.5 28 22.232 28 14.5C28 6.76801 21.732 0.5 14 0.5C6.26801 0.5 0 6.76801 0 14.5C0 22.232 6.26801 28.5 14 28.5Z" fill="#1366AA"/>
<path fill-rule="evenodd" clip-rule="evenodd" d="M10.8969 9.37169C10.9046 9.0891 11.17 8.85304 11.4534 8.88147C12.6622 8.87372 13.8718 8.87458 15.0805 8.88147C16.011 8.87544 16.9078 9.34757 17.4894 10.0618C18.058 10.7191 18.2587 11.6203 18.2191 12.4724C18.2648 13.3598 17.9934 14.2859 17.3688 14.9338C16.7717 15.5972 15.8861 15.9883 14.9944 15.9797C14.1656 15.9806 13.3376 15.9788 12.5088 15.9806C12.5028 15.6247 12.5037 15.2689 12.5071 14.914C13.3652 14.9028 14.2242 14.914 15.0822 14.9054C15.8309 14.8873 16.5322 14.4246 16.8941 13.7776C17.1982 13.1909 17.168 12.506 17.1284 11.8667C17.0345 10.869 16.1712 9.99544 15.1598 9.95581C14.0941 9.936 13.0266 9.9515 11.96 9.94461C11.9686 10.7838 11.9652 11.622 11.9643 12.4612C11.6059 12.487 11.2432 12.4827 10.8917 12.5654C10.9133 11.5006 10.884 10.4357 10.8969 9.37169Z" fill="#1366AA"/>
<path fill-rule="evenodd" clip-rule="evenodd" d="M11.0217 13.1517C11.1837 13.0682 11.3569 13.0027 11.5421 13.0147C12.7793 13.0078 14.0156 13.0104 15.2527 13.0182C15.6939 13.0173 16.1229 13.1354 16.5252 13.3094C16.365 13.6635 16.1169 13.9685 15.7809 14.1675C15.5483 14.1227 15.3139 14.0796 15.0761 14.0848C14.0363 14.0899 12.9964 14.083 11.9565 14.0874C11.9798 15.8302 11.9703 17.574 11.9625 19.3169C13.0308 19.3264 14.1 19.3221 15.1683 19.3195C16.0402 19.3341 16.8793 18.775 17.2283 17.9806C17.4712 17.4723 17.4161 16.8977 17.4187 16.3515C17.4204 16.1378 17.3868 15.9267 17.3377 15.72C17.6349 15.4589 17.883 15.1514 18.1553 14.8662C18.3422 15.3082 18.4999 15.7751 18.493 16.261C18.4835 16.8322 18.5447 17.4181 18.3698 17.972C17.9976 19.3677 16.6123 20.4352 15.1606 20.3869C13.845 20.3869 12.5294 20.4033 11.2139 20.3774C11.0674 20.2499 10.8908 20.1061 10.8968 19.8915C10.8934 17.7911 10.9003 15.6898 10.8951 13.5885C10.8925 13.4334 10.97 13.2939 11.0217 13.1517Z" fill="#1366AA"/>
</svg>
