<svg width="32" height="32" viewBox="0 0 32 32" fill="none" xmlns="http://www.w3.org/2000/svg">
<rect x="1" y="1" width="30" height="30" rx="15" fill="#6552FE"/>
<path d="M16.668 19.9707C16.668 20.3578 16.986 20.6712 17.3788 20.6712L20.8129 20.8643C21.3135 20.8643 21.7188 20.464 21.7188 19.9707C21.7188 19.4774 21.3135 19.078 20.8129 19.078L17.3788 19.2703C16.986 19.2703 16.668 19.5836 16.668 19.9707Z" fill="white"/>
<path d="M9.75509 19.0147C9.75509 19.0147 9.54842 19.2157 9.45845 19.3404C9.31948 19.5212 9.25 19.7441 9.25 19.9662C9.25 20.2155 9.32839 20.4472 9.47626 20.6359C9.51101 20.6702 9.64195 20.8159 9.76399 20.9361C10.4775 21.691 12.3402 22.926 13.3156 23.3034C13.4635 23.3631 13.8376 23.4921 14.0381 23.5C14.2287 23.5 14.4122 23.4579 14.5859 23.3718C14.8033 23.2516 14.9779 23.0629 15.0732 22.8399C15.1346 22.6855 15.23 22.2229 15.23 22.2141C15.3262 21.7076 15.3778 20.8843 15.3778 19.975C15.3778 19.1086 15.3262 18.3195 15.2478 17.8052C15.2389 17.7964 15.1436 17.2224 15.0384 17.0249C14.8469 16.665 14.4728 16.4412 14.0728 16.4412L14.0381 16.4412C13.7771 16.45 13.2283 16.6738 13.2283 16.6817C12.3055 17.0591 10.4864 18.2344 9.75509 19.0147Z" fill="white"/>
<path d="M15.3322 12.0283C15.3322 11.6412 15.0142 11.3279 14.6213 11.3279L11.1872 11.1357C10.6866 11.1357 10.2812 11.535 10.2812 12.0283C10.2812 12.5216 10.6866 12.9219 11.1872 12.9219L14.6213 12.7288C15.0142 12.7288 15.3322 12.4154 15.3322 12.0283Z" fill="white"/>
<path d="M17.414 8.6289C17.1967 8.74915 17.0229 8.93786 16.9267 9.16081C16.8653 9.31529 16.7699 9.77874 16.7699 9.78664C16.6737 10.2931 16.6221 11.1164 16.6221 12.0258C16.6221 12.8921 16.6737 13.6812 16.7521 14.1956C16.761 14.2043 16.8572 14.7784 16.9615 14.9759C17.153 15.3366 17.5271 15.5596 17.928 15.5596L17.9628 15.5596C18.2238 15.5508 18.7716 15.3278 18.7716 15.3191C19.6945 14.9416 21.5145 13.7672 22.2449 12.986C22.2449 12.986 22.4516 12.785 22.5407 12.6604C22.6806 12.4804 22.75 12.2575 22.75 12.0337C22.75 11.7853 22.6716 11.5544 22.5238 11.3648C22.489 11.3306 22.3581 11.1849 22.2369 11.0646C21.5225 10.3107 19.6598 9.07479 18.6852 8.69824C18.5373 8.63767 18.1623 8.50865 17.9628 8.50075C17.7712 8.50075 17.5877 8.54288 17.414 8.6289Z" fill="white"/>
<rect x="1" y="1" width="30" height="30" rx="15" stroke="#282832" stroke-width="2"/>
</svg>
