<svg width="24" height="25" viewBox="0 0 24 25" fill="none" xmlns="http://www.w3.org/2000/svg">
<path d="M12.02 2.5C6.21 2.5 2 7.24 2 12.5C2 14.18 2.49 15.91 3.35 17.49C3.51 17.75 3.53 18.08 3.42 18.39L2.75 20.63C2.6 21.17 3.06 21.57 3.57 21.41L5.59 20.81C6.14 20.63 6.57 20.86 7.081 21.17C8.541 22.03 10.36 22.47 12 22.47C16.96 22.47 22 18.64 22 12.47C22 7.15 17.7 2.5 12.02 2.5Z" fill="#6552FE"/>
<path fill-rule="evenodd" clip-rule="evenodd" d="M11.9802 13.7896C11.2702 13.7796 10.7002 13.2096 10.7002 12.4996C10.7002 11.7996 11.2802 11.2196 11.9802 11.2296C12.6902 11.2296 13.2602 11.7996 13.2602 12.5096C13.2602 13.2096 12.6902 13.7896 11.9802 13.7896ZM7.36984 13.7896C6.66984 13.7896 6.08984 13.2096 6.08984 12.5096C6.08984 11.7996 6.65984 11.2296 7.36984 11.2296C8.07984 11.2296 8.64984 11.7996 8.64984 12.5096C8.64984 13.2096 8.07984 13.7796 7.36984 13.7896ZM15.31 12.5096C15.31 13.2096 15.88 13.7896 16.59 13.7896C17.3 13.7896 17.87 13.2096 17.87 12.5096C17.87 11.7996 17.3 11.2296 16.59 11.2296C15.88 11.2296 15.31 11.7996 15.31 12.5096Z" fill="white"/>
</svg>
