<svg width="24" height="24" viewBox="0 0 24 24" fill="none" xmlns="http://www.w3.org/2000/svg">
<path d="M12.02 2C6.21 2 2 6.74 2 12C2 13.68 2.49 15.41 3.35 16.99C3.51 17.25 3.53 17.58 3.42 17.89L2.75 20.13C2.6 20.67 3.06 21.07 3.57 20.91L5.59 20.31C6.14 20.13 6.57 20.36 7.081 20.67C8.541 21.53 10.36 21.97 12 21.97C16.96 21.97 22 18.14 22 11.97C22 6.65 17.7 2 12.02 2Z" fill="#6552FE"/>
<path fill-rule="evenodd" clip-rule="evenodd" d="M11.9805 13.2906C11.2705 13.2806 10.7005 12.7106 10.7005 12.0006C10.7005 11.3006 11.2805 10.7206 11.9805 10.7306C12.6905 10.7306 13.2605 11.3006 13.2605 12.0106C13.2605 12.7106 12.6905 13.2906 11.9805 13.2906ZM7.37009 13.2906C6.67009 13.2906 6.09009 12.7106 6.09009 12.0106C6.09009 11.3006 6.66009 10.7306 7.37009 10.7306C8.08009 10.7306 8.65009 11.3006 8.65009 12.0106C8.65009 12.7106 8.08009 13.2806 7.37009 13.2906ZM15.3103 12.0106C15.3103 12.7106 15.8803 13.2906 16.5903 13.2906C17.3003 13.2906 17.8703 12.7106 17.8703 12.0106C17.8703 11.3006 17.3003 10.7306 16.5903 10.7306C15.8803 10.7306 15.3103 11.3006 15.3103 12.0106Z" fill="white"/>
</svg>
