<svg width="18" height="18" viewBox="0 0 18 18" fill="none" xmlns="http://www.w3.org/2000/svg">
<g clip-path="url(#clip0_301_1604)">
<path d="M12.1845 3.14844H3.69379C2.89709 3.14844 2.25 3.78617 2.25 4.57134V16.5776C2.25 17.3628 2.89709 18.0005 3.69379 18.0005H12.1845C12.9812 18.0005 13.6283 17.3628 13.6283 16.5776V4.57134C13.6246 3.78617 12.9775 3.14844 12.1845 3.14844ZM12.6146 16.5739C12.6146 16.8098 12.4201 17.0015 12.1808 17.0015H3.69005C3.45067 17.0015 3.25617 16.8098 3.25617 16.5739V4.57134C3.25617 4.33542 3.45067 4.14374 3.69005 4.14374H12.1808C12.4201 4.14374 12.6146 4.33542 12.6146 4.57134V16.5739Z" fill="white"/>
<path d="M15.4312 0H6.9405C6.14379 0 5.4967 0.637728 5.4967 1.42291C5.4967 1.69938 5.72113 1.92056 6.00166 1.92056C6.28219 1.92056 6.50661 1.69938 6.50661 1.42291C6.50661 1.18698 6.70111 0.995298 6.9405 0.995298H15.4312C15.6706 0.995298 15.8651 1.18698 15.8651 1.42291V13.4291C15.8651 13.6651 15.6706 13.8568 15.4312 13.8568C15.1507 13.8568 14.9263 14.0779 14.9263 14.3544C14.9263 14.6309 15.1507 14.8521 15.4312 14.8521C16.2279 14.8521 16.875 14.2143 16.875 13.4291V1.42291C16.875 0.637728 16.2279 0 15.4312 0Z" fill="white"/>
</g>
<defs>
<clipPath id="clip0_301_1604">
<rect width="18" height="18" fill="white"/>
</clipPath>
</defs>
</svg>
