<svg width="28" height="29" viewBox="0 0 28 29" fill="none" xmlns="http://www.w3.org/2000/svg">
<path opacity="0.2" d="M14 28.5C21.732 28.5 28 22.232 28 14.5C28 6.76801 21.732 0.5 14 0.5C6.26801 0.5 0 6.76801 0 14.5C0 22.232 6.26801 28.5 14 28.5Z" fill="#DC9638"/>
<path fill-rule="evenodd" clip-rule="evenodd" d="M16.1146 6.57715C16.2865 6.43802 16.5616 6.4935 16.6837 6.67401C16.746 6.75884 16.7561 6.86861 16.7544 6.97134C16.7521 7.61444 16.7558 8.25783 16.7523 8.90122C15.6867 9.62738 14.6277 10.3638 13.5633 11.092C13.5332 11.112 13.5077 11.1378 13.4828 11.1639C14.2068 11.6694 14.9372 12.166 15.6641 12.6676C15.7707 12.7442 15.885 12.8109 15.982 12.901C16.2483 13.0559 16.4959 13.2447 16.7535 13.4155C16.7529 14.2309 16.7561 15.0466 16.7521 15.8623C16.1435 15.5356 15.5344 15.2101 14.9242 14.8872C14.7569 14.7924 14.5843 14.7073 14.417 14.6125C14.3472 14.5699 14.2864 14.5144 14.2245 14.4613L14.2172 14.5133C14.2149 14.4948 14.2103 14.4581 14.208 14.4396C14.177 14.4516 14.1472 14.4915 14.111 14.4757C14.0956 14.4396 14.133 14.4094 14.1443 14.3782C14.0496 14.3213 13.9518 14.2673 13.8719 14.1892C12.9663 13.4956 12.066 12.7935 11.1648 12.0935C11.1567 11.4422 11.1628 10.79 11.1619 10.1381C12.8155 8.95522 14.4624 7.76237 16.1146 6.57715Z" fill="#DC9638"/>
<path fill-rule="evenodd" clip-rule="evenodd" d="M11.1674 16.966C12.249 16.1797 13.3308 15.3922 14.4173 14.6123C14.5847 14.7071 14.7572 14.7922 14.9245 14.887C15.5348 15.2099 16.1439 15.5354 16.7524 15.8621C15.6584 16.5985 14.5615 17.33 13.4675 18.0661C14.5612 18.8128 15.6581 19.554 16.7524 20.2995C16.7524 21.033 16.7536 21.7665 16.7518 22.5C16.7591 22.7445 16.5086 22.9411 16.277 22.8907C16.1639 22.8733 16.079 22.7914 15.9899 22.7263C15.029 22.0078 14.0696 21.2872 13.1082 20.5695C12.4627 20.0802 11.8078 19.6027 11.1657 19.1096C11.1611 18.3954 11.1576 17.6798 11.1674 16.966Z" fill="#1F3850"/>
</svg>
