<?xml version="1.0" standalone="no"?>
<!DOCTYPE svg PUBLIC "-//W3C//DTD SVG 20010904//EN"
 "http://www.w3.org/TR/2001/REC-SVG-20010904/DTD/svg10.dtd">
<svg version="1.0" xmlns="http://www.w3.org/2000/svg"
 width="206.000000pt" height="201.000000pt" viewBox="0 0 206.000000 201.000000"
 preserveAspectRatio="xMidYMid meet">

<g transform="translate(0.000000,201.000000) scale(0.100000,-0.100000)"
fill="#000000" stroke="none">
<path d="M540 1773 c-108 -11 -224 -78 -292 -168 -54 -71 -53 -112 5 -159 248
-205 661 -525 687 -534 46 -16 131 -15 173 3 54 22 710 550 722 581 13 35 -22
99 -91 164 -64 61 -141 98 -227 111 -58 8 -901 10 -977 2z"/>
<path d="M172 1258 c-9 -9 -12 -94 -12 -323 0 -332 5 -377 53 -474 53 -108
189 -203 319 -221 85 -13 885 -12 973 0 188 27 335 169 365 356 13 81 13 630
0 655 -6 10 -19 19 -29 19 -9 0 -152 -108 -317 -240 -164 -132 -321 -251 -349
-265 -97 -48 -200 -50 -297 -7 -24 10 -124 84 -222 163 -444 358 -455 366
-484 337z m343 -528 c3 -5 1 -10 -4 -10 -6 0 -11 5 -11 10 0 6 2 10 4 10 3 0
8 -4 11 -10z m983 -7 c-4 -20 -45 -30 -60 -15 -16 16 1 32 33 32 24 0 30 -4
27 -17z m-622 -157 c25 -19 9 -50 -29 -54 -28 -3 -67 27 -67 53 0 20 69 20 96
1z"/>
</g>
</svg>
