<svg width="28" height="29" viewBox="0 0 28 29" fill="none" xmlns="http://www.w3.org/2000/svg">
<path opacity="0.1" d="M14 28.5C21.732 28.5 28 22.232 28 14.5C28 6.76801 21.732 0.5 14 0.5C6.26801 0.5 0 6.76801 0 14.5C0 22.232 6.26801 28.5 14 28.5Z" fill="#3AB83A"/>
<mask id="mask0_338_2895" style="mask-type:luminance" maskUnits="userSpaceOnUse" x="0" y="0" width="28" height="29">
<path d="M14 28.5C21.732 28.5 28 22.232 28 14.5C28 6.76801 21.732 0.5 14 0.5C6.26801 0.5 0 6.76801 0 14.5C0 22.232 6.26801 28.5 14 28.5Z" fill="white"/>
</mask>
<g mask="url(#mask0_338_2895)">
<path fill-rule="evenodd" clip-rule="evenodd" d="M10.7692 13.7736L14.5539 11.3134L18.3076 13.7888L14.5374 6.96094L10.7692 13.7736ZM10.9135 14.4839L14.558 12.0823L18.155 14.4661L14.5601 16.8703L10.9135 14.4839ZM10.7692 15.1713C12.0974 16.0423 13.4834 16.954 14.5539 17.6595L18.3076 15.1713C16.9484 17.6646 15.8161 19.7402 14.5539 22.0374L13.7798 20.6343L13.7797 20.6341C12.7399 18.7494 11.6676 16.8058 10.7692 15.1713Z" fill="#3AB83A"/>
<path fill-rule="evenodd" clip-rule="evenodd" d="M14.5385 6.96094L14.5526 11.3134L18.3077 13.7888L14.5385 6.96094ZM14.5562 12.0823L18.177 14.4661L14.5579 16.8703L14.5562 12.0823ZM14.5526 17.6595L18.3077 15.1713C17.143 17.6646 14.5526 22.0374 14.5526 22.0374V17.6595Z" fill="#0B8311"/>
</g>
</svg>
