<svg width="28" height="29" viewBox="0 0 28 29" fill="none" xmlns="http://www.w3.org/2000/svg">
<path opacity="0.2" d="M14 28.5C21.732 28.5 28 22.232 28 14.5C28 6.76801 21.732 0.5 14 0.5C6.26801 0.5 0 6.76801 0 14.5C0 22.232 6.26801 28.5 14 28.5Z" fill="#45525B"/>
<path fill-rule="evenodd" clip-rule="evenodd" d="M14 28.5C21.732 28.5 28 22.232 28 14.5C28 6.76801 21.732 0.5 14 0.5C6.26801 0.5 0 6.76801 0 14.5C0 22.232 6.26801 28.5 14 28.5Z" fill="#002D64"/>
<path fill-rule="evenodd" clip-rule="evenodd" d="M16.6151 12.3995C17.3067 11.7079 17.6819 10.7979 17.6819 9.81791C17.6819 8.96238 17.3816 8.134 16.8335 7.47711L18.9559 5.35471L18.4827 4.89551L16.3603 7.01791C15.7051 6.47191 14.8931 6.16951 14.0335 6.16951C12.558 6.17052 11.2281 7.05964 10.6632 8.4228C10.0984 9.78595 10.4096 11.3551 11.4519 12.3995C12.0567 13.0043 12.8463 13.3823 13.6947 13.4551V16.1459C12.8445 16.2164 12.0482 16.5912 11.4519 17.2015C10.0295 18.6287 10.0295 20.9375 11.4519 22.3647C12.1435 23.0563 13.0535 23.4315 14.0335 23.4315C15.0019 23.4344 15.9313 23.0504 16.6151 22.3647C17.3067 21.6731 17.6819 20.7631 17.6819 19.7831C17.6819 18.8031 17.3067 17.8931 16.6151 17.2015C16.0103 16.5967 15.2207 16.2187 14.3723 16.1459V13.4551C15.2228 13.3852 16.0193 13.0103 16.6151 12.3995ZM16.1419 17.6717C16.6991 18.2401 17.0155 18.9821 17.0155 19.7801C17.0168 20.5712 16.7024 21.3301 16.1419 21.8885C15.5847 22.4569 14.8315 22.7621 14.0335 22.7621C13.2424 22.7634 12.4835 22.4489 11.9251 21.8885C11.3679 21.3201 11.0515 20.5781 11.0515 19.7801C11.0503 18.989 11.3647 18.2301 11.9251 17.6717C12.4823 17.1033 13.2355 16.7981 14.0335 16.7981C14.8343 16.8009 15.5847 17.1033 16.1419 17.6717ZM11.9254 11.9378C12.4838 12.4982 13.2427 12.8126 14.0338 12.8114C14.8346 12.8114 15.585 12.509 16.1422 11.9378C16.7027 11.3794 17.0171 10.6205 17.0158 9.82936C17.0158 9.03136 16.7106 8.27816 16.1422 7.72096C15.5839 7.16054 14.8249 6.84609 14.0338 6.84736C13.2358 6.84736 12.4826 7.15256 11.9254 7.72096C11.3655 8.27963 11.0511 9.03835 11.0518 9.82936C11.0518 10.6274 11.3682 11.3694 11.9254 11.9378Z" fill="white"/>
</svg>
