<svg width="80" height="80" viewBox="0 0 80 80" fill="none" xmlns="http://www.w3.org/2000/svg">
<rect width="80" height="80" rx="40" fill="#6552FE"/>
<path fill-rule="evenodd" clip-rule="evenodd" d="M51.4358 32.3517C50.3355 32.2528 49.3626 33.0617 49.2636 34.1619L48.2354 45.4658L31.4558 28.6861C30.6751 27.9055 29.408 27.9055 28.6274 28.6861C27.8467 29.4668 27.8467 30.7339 28.6274 31.5145L45.407 48.2942L34.1032 49.3223C33.0015 49.4227 32.1926 50.3957 32.293 51.4945C32.392 52.5948 33.365 53.4066 34.4652 53.3047L50.0216 51.8905C50.1446 51.8806 50.2507 51.8283 50.3667 51.7972C50.4586 51.7731 50.5491 51.7618 50.6382 51.7236C50.8687 51.6232 51.0794 51.4889 51.2548 51.3135C51.4301 51.1382 51.5645 50.9274 51.6649 50.6969C51.7031 50.6078 51.7144 50.5173 51.7384 50.4254C51.7696 50.3094 51.8219 50.2034 51.8318 50.0803L53.246 34.524C53.3464 33.4251 52.5361 32.4507 51.4358 32.3517Z" fill="white"/>
</svg>
