<svg width="64" height="64" viewBox="0 0 64 64" fill="none" xmlns="http://www.w3.org/2000/svg">
<path opacity="0.4" d="M32.054 5.33301C16.5607 5.33301 5.33398 17.973 5.33398 31.9997C5.33398 36.4797 6.64065 41.093 8.93398 45.3063C9.36065 45.9997 9.41398 46.8797 9.12065 47.7063L7.33398 53.6797C6.93398 55.1197 8.16065 56.1863 9.52065 55.7597L14.9073 54.1597C16.374 53.6797 17.5207 54.293 18.8833 55.1197C22.7767 57.413 27.6273 58.5863 32.0007 58.5863C45.2273 58.5863 58.6673 48.373 58.6673 31.9197C58.6673 17.733 47.2007 5.33301 32.054 5.33301Z" fill="#6552FE"/>
<path fill-rule="evenodd" clip-rule="evenodd" d="M19.6536 35.4395C17.7869 35.4395 16.2402 33.8928 16.2402 32.0261C16.2402 30.1328 17.7602 28.6128 19.6536 28.6128C21.5469 28.6128 23.0669 30.1328 23.0669 32.0261C23.0669 33.8928 21.5469 35.4128 19.6536 35.4395ZM31.9478 35.4398C30.0545 35.4131 28.5345 33.8931 28.5345 31.9998C28.5345 30.1331 30.0812 28.5865 31.9478 28.6131C33.8412 28.6131 35.3612 30.1331 35.3612 32.0265C35.3612 33.8931 33.8412 35.4398 31.9478 35.4398ZM40.8262 32.0261C40.8262 33.8928 42.3462 35.4395 44.2395 35.4395C46.1328 35.4395 47.6528 33.8928 47.6528 32.0261C47.6528 30.1328 46.1328 28.6128 44.2395 28.6128C42.3462 28.6128 40.8262 30.1328 40.8262 32.0261Z" fill="#6552FE"/>
</svg>
