<svg width="64" height="64" viewBox="0 0 64 64" fill="none" xmlns="http://www.w3.org/2000/svg">
<path fill-rule="evenodd" clip-rule="evenodd" d="M58.6578 22.3337H47.3654C42.1103 22.3429 37.8531 26.4937 37.8436 31.6175C37.8365 36.7529 42.0984 40.9221 47.3654 40.9291H58.6673V41.7449C58.6673 50.7029 53.2368 56 44.0469 56H19.9568C10.7645 56 5.33398 50.7029 5.33398 41.7449V22.2343C5.33398 13.2763 10.7645 8 19.9568 8H44.0374C53.2273 8 58.6578 13.2763 58.6578 22.2343V22.3337ZM17.9722 22.3131H33.0122H33.0217H33.0406C34.1666 22.3085 35.0768 21.4141 35.072 20.314C35.0673 19.2162 34.1476 18.3287 33.0217 18.3334H17.9722C16.8534 18.338 15.9455 19.2231 15.9408 20.3163C15.936 21.4141 16.8463 22.3085 17.9722 22.3131Z" fill="#6552FE"/>
<path opacity="0.4" d="M42.7667 32.791C43.3244 35.3275 45.5483 37.1121 48.0872 37.0657H56.7537C57.8101 37.0657 58.667 36.1908 58.667 35.1094V28.3585C58.6647 27.2794 57.8101 26.4022 56.7537 26.3999H47.8832C44.9951 26.4092 42.6625 28.8064 42.667 31.7606C42.667 32.1064 42.701 32.4522 42.7667 32.791Z" fill="#6552FE"/>
<circle cx="48.0007" cy="31.7331" r="2.66667" fill="#6552FE"/>
</svg>
