<svg width="64" height="64" viewBox="0 0 64 64" fill="none" xmlns="http://www.w3.org/2000/svg">
<path opacity="0.4" d="M42.869 5.33301H51.8983C55.6376 5.33301 58.6676 8.38861 58.6676 12.1596V21.2651C58.6676 25.036 55.6376 28.0916 51.8983 28.0916H42.869C39.1296 28.0916 36.0996 25.036 36.0996 21.2651V12.1596C36.0996 8.38861 39.1296 5.33301 42.869 5.33301Z" fill="#6552FE"/>
<path fill-rule="evenodd" clip-rule="evenodd" d="M12.1034 5.33301H21.1326C24.872 5.33301 27.902 8.38861 27.902 12.1596V21.2651C27.902 25.036 24.872 28.0916 21.1326 28.0916H12.1034C8.364 28.0916 5.33398 25.036 5.33398 21.2651V12.1596C5.33398 8.38861 8.364 5.33301 12.1034 5.33301ZM12.1034 35.9072H21.1326C24.872 35.9072 27.902 38.9628 27.902 42.7338V51.8393C27.902 55.6077 24.872 58.6659 21.1326 58.6659H12.1034C8.364 58.6659 5.33398 55.6077 5.33398 51.8393V42.7338C5.33398 38.9628 8.364 35.9072 12.1034 35.9072ZM51.8983 35.9072H42.869C39.1296 35.9072 36.0996 38.9628 36.0996 42.7338V51.8393C36.0996 55.6077 39.1296 58.6659 42.869 58.6659H51.8983C55.6376 58.6659 58.6677 55.6077 58.6677 51.8393V42.7338C58.6677 38.9628 55.6376 35.9072 51.8983 35.9072Z" fill="#6552FE"/>
</svg>
