<svg width="28" height="29" viewBox="0 0 28 29" fill="none" xmlns="http://www.w3.org/2000/svg">
<path opacity="0.2" d="M14 28.5C21.732 28.5 28 22.232 28 14.5C28 6.76801 21.732 0.5 14 0.5C6.26801 0.5 0 6.76801 0 14.5C0 22.232 6.26801 28.5 14 28.5Z" fill="#57BEEA"/>
<path fill-rule="evenodd" clip-rule="evenodd" d="M14.1246 16.6288C15.4573 16.6288 16.5377 15.5555 16.5377 14.2314C16.5377 12.9073 15.4573 11.834 14.1246 11.834C12.7919 11.834 11.7115 12.9073 11.7115 14.2314C11.7115 15.5555 12.7919 16.6288 14.1246 16.6288Z" fill="#57BEEA"/>
<path fill-rule="evenodd" clip-rule="evenodd" d="M14.125 22.6621C18.8111 22.6621 22.6098 18.888 22.6098 14.2324C22.6098 9.57684 18.8111 5.80273 14.125 5.80273C9.43903 5.80273 5.64026 9.57684 5.64026 14.2324C5.64026 18.888 9.43903 22.6621 14.125 22.6621Z" stroke="#57BEEA" stroke-width="0.615385"/>
<path fill-rule="evenodd" clip-rule="evenodd" d="M18.3799 9.59664C19.711 9.59664 20.7901 8.52458 20.7901 7.20213C20.7901 5.87968 19.711 4.80762 18.3799 4.80762C17.0488 4.80762 15.9697 5.87968 15.9697 7.20213C15.9697 8.52458 17.0488 9.59664 18.3799 9.59664Z" fill="#57BEEA"/>
<path fill-rule="evenodd" clip-rule="evenodd" d="M18.2942 24.1884C19.6253 24.1884 20.7044 23.1164 20.7044 21.7939C20.7044 20.4715 19.6253 19.3994 18.2942 19.3994C16.9631 19.3994 15.884 20.4715 15.884 21.7939C15.884 23.1164 16.9631 24.1884 18.2942 24.1884Z" fill="#57BEEA"/>
<path fill-rule="evenodd" clip-rule="evenodd" d="M5.641 17.165C6.9721 17.165 8.05116 16.0929 8.05116 14.7705C8.05116 13.448 6.9721 12.376 5.641 12.376C4.3099 12.376 3.23083 13.448 3.23083 14.7705C3.23083 16.0929 4.3099 17.165 5.641 17.165Z" fill="#57BEEA"/>
</svg>
