<svg width="80" height="81" viewBox="0 0 80 81" fill="none" xmlns="http://www.w3.org/2000/svg">
<path d="M80 40.5C80 62.5914 62.0914 80.5 40 80.5C17.9086 80.5 0 62.5914 0 40.5C0 18.4086 17.9086 0.5 40 0.5C62.0914 0.5 80 18.4086 80 40.5ZM12 40.5C12 55.964 24.536 68.5 40 68.5C55.464 68.5 68 55.964 68 40.5C68 25.036 55.464 12.5 40 12.5C24.536 12.5 12 25.036 12 40.5Z" fill="white"/>
<path d="M3.49691e-06 40.5C3.95613e-06 35.2471 1.03463 30.0457 3.04482 25.1927C5.05501 20.3396 8.00139 15.9301 11.7157 12.2157C15.4301 8.50138 19.8396 5.555 24.6927 3.54481C29.5457 1.53463 34.7471 0.499996 40 0.499997L40 12.5C36.323 12.5 32.682 13.2242 29.2849 14.6314C25.8878 16.0385 22.8011 18.101 20.201 20.701C17.601 23.301 15.5385 26.3877 14.1314 29.7849C12.7242 33.182 12 36.823 12 40.5L3.49691e-06 40.5Z" fill="#6552FE" fill-opacity="0.4"/>
</svg>
