<svg width="312" height="48" viewBox="0 0 312 48" fill="none" xmlns="http://www.w3.org/2000/svg">
<path d="M32.2798 4.27266C32.1838 4.87265 32.1358 5.47264 32.1358 6.07263C32.1358 11.4725 36.5038 15.8381 41.8798 15.8381C42.4798 15.8381 43.0558 15.7685 43.6558 15.6725V35.0378C43.6558 43.1761 38.8558 48 30.6958 48H12.9623C4.79997 48 0 43.1761 0 35.0378V17.2805C0 9.12058 4.79997 4.27266 12.9623 4.27266H32.2798ZM32.7622 18.8644C32.1118 18.7924 31.4662 19.0804 31.0798 19.6084L25.2743 27.1203L18.6239 21.8884C18.2159 21.5764 17.7359 21.454 17.2559 21.5044C16.7783 21.5764 16.3463 21.838 16.0559 22.222L8.95435 31.4642L8.80795 31.6802C8.39996 32.4458 8.59196 33.4298 9.31195 33.9602C9.64795 34.1762 10.0079 34.3202 10.4159 34.3202C10.9703 34.3442 11.4959 34.0538 11.8319 33.6002L17.8559 25.8459L24.6959 30.9843L24.9119 31.1259C25.6799 31.5338 26.6399 31.3443 27.1919 30.6219L34.1278 21.6724L34.0318 21.7204C34.4158 21.1924 34.4878 20.5204 34.2238 19.9204C33.9622 19.3204 33.3838 18.9124 32.7622 18.8644ZM42.216 0C45.408 0 48 2.59196 48 5.78391C48 8.97587 45.408 11.5678 42.216 11.5678C39.024 11.5678 36.432 8.97587 36.432 5.78391C36.432 2.59196 39.024 0 42.216 0Z" fill="#6552FE"/>
<path d="M42.2156 0C45.4076 0 47.9996 2.59196 47.9996 5.78391C47.9996 8.97587 45.4076 11.5678 42.2156 11.5678C39.0236 11.5678 36.4316 8.97587 36.4316 5.78391C36.4316 2.59196 39.0236 0 42.2156 0Z" fill="#6552FE"/>
<path d="M64.98 24.2C64.98 22.2773 65.4093 20.56 66.268 19.048C67.1453 17.5173 68.3307 16.332 69.824 15.492C71.336 14.6333 73.0253 14.204 74.892 14.204C77.076 14.204 78.9893 14.764 80.632 15.884C82.2747 17.004 83.4227 18.5533 84.076 20.532H79.568C79.12 19.5987 78.4853 18.8987 77.664 18.432C76.8613 17.9653 75.928 17.732 74.864 17.732C73.7253 17.732 72.708 18.0027 71.812 18.544C70.9347 19.0667 70.244 19.8133 69.74 20.784C69.2547 21.7547 69.012 22.8933 69.012 24.2C69.012 25.488 69.2547 26.6267 69.74 27.616C70.244 28.5867 70.9347 29.3427 71.812 29.884C72.708 30.4067 73.7253 30.668 74.864 30.668C75.928 30.668 76.8613 30.4347 77.664 29.968C78.4853 29.4827 79.12 28.7733 79.568 27.84H84.076C83.4227 29.8373 82.2747 31.396 80.632 32.516C79.008 33.6173 77.0947 34.168 74.892 34.168C73.0253 34.168 71.336 33.748 69.824 32.908C68.3307 32.0493 67.1453 30.864 66.268 29.352C65.4093 27.84 64.98 26.1227 64.98 24.2ZM91.3442 20.896C91.8482 20.0747 92.5015 19.4307 93.3042 18.964C94.1255 18.4973 95.0589 18.264 96.1042 18.264V22.38H95.0682C93.8362 22.38 92.9029 22.6693 92.2682 23.248C91.6522 23.8267 91.3442 24.8347 91.3442 26.272V34H87.4242V18.488H91.3442V20.896ZM113.585 18.488L103.981 41.336H99.8085L103.169 33.608L96.9525 18.488H101.349L105.353 29.324L109.413 18.488H113.585ZM119.618 20.728C120.122 20.0187 120.812 19.4307 121.69 18.964C122.586 18.4787 123.603 18.236 124.742 18.236C126.067 18.236 127.262 18.5627 128.326 19.216C129.408 19.8693 130.258 20.8027 130.874 22.016C131.508 23.2107 131.826 24.6013 131.826 26.188C131.826 27.7747 131.508 29.184 130.874 30.416C130.258 31.6293 129.408 32.572 128.326 33.244C127.262 33.916 126.067 34.252 124.742 34.252C123.603 34.252 122.595 34.0187 121.718 33.552C120.859 33.0853 120.159 32.4973 119.618 31.788V41.392H115.698V18.488H119.618V20.728ZM127.822 26.188C127.822 25.2547 127.626 24.452 127.234 23.78C126.86 23.0893 126.356 22.5667 125.722 22.212C125.106 21.8573 124.434 21.68 123.706 21.68C122.996 21.68 122.324 21.8667 121.69 22.24C121.074 22.5947 120.57 23.1173 120.178 23.808C119.804 24.4987 119.618 25.3107 119.618 26.244C119.618 27.1773 119.804 27.9893 120.178 28.68C120.57 29.3707 121.074 29.9027 121.69 30.276C122.324 30.6307 122.996 30.808 123.706 30.808C124.434 30.808 125.106 30.6213 125.722 30.248C126.356 29.8747 126.86 29.3427 127.234 28.652C127.626 27.9613 127.822 27.14 127.822 26.188ZM139.238 21.708V29.212C139.238 29.7347 139.36 30.1173 139.602 30.36C139.864 30.584 140.293 30.696 140.89 30.696H142.71V34H140.246C136.942 34 135.29 32.3947 135.29 29.184V21.708H133.442V18.488H135.29V14.652H139.238V18.488H142.71V21.708H139.238ZM152.418 34.252C150.924 34.252 149.58 33.9253 148.386 33.272C147.191 32.6 146.248 31.6573 145.558 30.444C144.886 29.2307 144.55 27.8307 144.55 26.244C144.55 24.6573 144.895 23.2573 145.586 22.044C146.295 20.8307 147.256 19.8973 148.47 19.244C149.683 18.572 151.036 18.236 152.53 18.236C154.023 18.236 155.376 18.572 156.59 19.244C157.803 19.8973 158.755 20.8307 159.446 22.044C160.155 23.2573 160.51 24.6573 160.51 26.244C160.51 27.8307 160.146 29.2307 159.418 30.444C158.708 31.6573 157.738 32.6 156.506 33.272C155.292 33.9253 153.93 34.252 152.418 34.252ZM152.418 30.836C153.127 30.836 153.79 30.668 154.406 30.332C155.04 29.9773 155.544 29.4547 155.918 28.764C156.291 28.0733 156.478 27.2333 156.478 26.244C156.478 24.7693 156.086 23.64 155.302 22.856C154.536 22.0533 153.594 21.652 152.474 21.652C151.354 21.652 150.411 22.0533 149.646 22.856C148.899 23.64 148.526 24.7693 148.526 26.244C148.526 27.7187 148.89 28.8573 149.618 29.66C150.364 30.444 151.298 30.836 152.418 30.836Z" fill="#6552FE"/>
<path d="M167.305 17.62V22.52H173.885V25.628H167.305V30.808H174.725V34H163.385V14.428H174.725V17.62H167.305ZM186.855 34L183.663 29.184L180.835 34H176.635L181.703 26.216L176.579 18.488H181.003L184.167 23.276L187.023 18.488H191.223L186.127 26.216L191.279 34H186.855ZM192.401 26.244C192.401 24.6387 192.727 23.2387 193.381 22.044C194.034 20.8307 194.939 19.8973 196.097 19.244C197.254 18.572 198.579 18.236 200.073 18.236C201.995 18.236 203.582 18.7213 204.833 19.692C206.102 20.644 206.951 21.988 207.381 23.724H203.153C202.929 23.052 202.546 22.5293 202.005 22.156C201.482 21.764 200.829 21.568 200.045 21.568C198.925 21.568 198.038 21.9787 197.385 22.8C196.731 23.6027 196.405 24.7507 196.405 26.244C196.405 27.7187 196.731 28.8667 197.385 29.688C198.038 30.4907 198.925 30.892 200.045 30.892C201.631 30.892 202.667 30.1827 203.153 28.764H207.381C206.951 30.444 206.102 31.7787 204.833 32.768C203.563 33.7573 201.977 34.252 200.073 34.252C198.579 34.252 197.254 33.9253 196.097 33.272C194.939 32.6 194.034 31.6667 193.381 30.472C192.727 29.2587 192.401 27.8493 192.401 26.244ZM218.988 18.264C220.164 18.264 221.21 18.5253 222.124 19.048C223.039 19.552 223.748 20.308 224.252 21.316C224.775 22.3053 225.036 23.5 225.036 24.9V34H221.116V25.432C221.116 24.2 220.808 23.2573 220.192 22.604C219.576 21.932 218.736 21.596 217.672 21.596C216.59 21.596 215.731 21.932 215.096 22.604C214.48 23.2573 214.172 24.2 214.172 25.432V34H210.252V13.28H214.172V20.42C214.676 19.748 215.348 19.2253 216.188 18.852C217.028 18.46 217.962 18.264 218.988 18.264ZM227.756 26.188C227.756 24.62 228.064 23.2293 228.68 22.016C229.315 20.8027 230.164 19.8693 231.228 19.216C232.311 18.5627 233.515 18.236 234.84 18.236C235.997 18.236 237.005 18.4693 237.864 18.936C238.741 19.4027 239.441 19.9907 239.964 20.7V18.488H243.912V34H239.964V31.732C239.46 32.46 238.76 33.0667 237.864 33.552C236.987 34.0187 235.969 34.252 234.812 34.252C233.505 34.252 232.311 33.916 231.228 33.244C230.164 32.572 229.315 31.6293 228.68 30.416C228.064 29.184 227.756 27.7747 227.756 26.188ZM239.964 26.244C239.964 25.292 239.777 24.48 239.404 23.808C239.031 23.1173 238.527 22.5947 237.892 22.24C237.257 21.8667 236.576 21.68 235.848 21.68C235.12 21.68 234.448 21.8573 233.832 22.212C233.216 22.5667 232.712 23.0893 232.32 23.78C231.947 24.452 231.76 25.2547 231.76 26.188C231.76 27.1213 231.947 27.9427 232.32 28.652C232.712 29.3427 233.216 29.8747 233.832 30.248C234.467 30.6213 235.139 30.808 235.848 30.808C236.576 30.808 237.257 30.6307 237.892 30.276C238.527 29.9027 239.031 29.38 239.404 28.708C239.777 28.0173 239.964 27.196 239.964 26.244ZM256.337 18.264C258.185 18.264 259.678 18.852 260.817 20.028C261.955 21.1853 262.525 22.8093 262.525 24.9V34H258.605V25.432C258.605 24.2 258.297 23.2573 257.681 22.604C257.065 21.932 256.225 21.596 255.161 21.596C254.078 21.596 253.219 21.932 252.585 22.604C251.969 23.2573 251.661 24.2 251.661 25.432V34H247.741V18.488H251.661V20.42C252.183 19.748 252.846 19.2253 253.649 18.852C254.47 18.46 255.366 18.264 256.337 18.264ZM272.328 18.236C273.486 18.236 274.503 18.4693 275.38 18.936C276.258 19.384 276.948 19.972 277.452 20.7V18.488H281.4V34.112C281.4 35.5493 281.111 36.828 280.532 37.948C279.954 39.0867 279.086 39.9827 277.928 40.636C276.771 41.308 275.371 41.644 273.728 41.644C271.526 41.644 269.715 41.1307 268.296 40.104C266.896 39.0773 266.103 37.6773 265.916 35.904H269.808C270.014 36.6133 270.452 37.1733 271.124 37.584C271.815 38.0133 272.646 38.228 273.616 38.228C274.755 38.228 275.679 37.8827 276.388 37.192C277.098 36.52 277.452 35.4933 277.452 34.112V31.704C276.948 32.432 276.248 33.0387 275.352 33.524C274.475 34.0093 273.467 34.252 272.328 34.252C271.022 34.252 269.827 33.916 268.744 33.244C267.662 32.572 266.803 31.6293 266.168 30.416C265.552 29.184 265.244 27.7747 265.244 26.188C265.244 24.62 265.552 23.2293 266.168 22.016C266.803 20.8027 267.652 19.8693 268.716 19.216C269.799 18.5627 271.003 18.236 272.328 18.236ZM277.452 26.244C277.452 25.292 277.266 24.48 276.892 23.808C276.519 23.1173 276.015 22.5947 275.38 22.24C274.746 21.8667 274.064 21.68 273.336 21.68C272.608 21.68 271.936 21.8573 271.32 22.212C270.704 22.5667 270.2 23.0893 269.808 23.78C269.435 24.452 269.248 25.2547 269.248 26.188C269.248 27.1213 269.435 27.9427 269.808 28.652C270.2 29.3427 270.704 29.8747 271.32 30.248C271.955 30.6213 272.627 30.808 273.336 30.808C274.064 30.808 274.746 30.6307 275.38 30.276C276.015 29.9027 276.519 29.38 276.892 28.708C277.266 28.0173 277.452 27.196 277.452 26.244ZM299.649 25.908C299.649 26.468 299.612 26.972 299.537 27.42H288.197C288.29 28.54 288.682 29.4173 289.373 30.052C290.064 30.6867 290.913 31.004 291.921 31.004C293.377 31.004 294.413 30.3787 295.029 29.128H299.257C298.809 30.6213 297.95 31.8533 296.681 32.824C295.412 33.776 293.853 34.252 292.005 34.252C290.512 34.252 289.168 33.9253 287.973 33.272C286.797 32.6 285.873 31.6573 285.201 30.444C284.548 29.2307 284.221 27.8307 284.221 26.244C284.221 24.6387 284.548 23.2293 285.201 22.016C285.854 20.8027 286.769 19.8693 287.945 19.216C289.121 18.5627 290.474 18.236 292.005 18.236C293.48 18.236 294.796 18.5533 295.953 19.188C297.129 19.8227 298.034 20.728 298.669 21.904C299.322 23.0613 299.649 24.396 299.649 25.908ZM295.589 24.788C295.57 23.78 295.206 22.9773 294.497 22.38C293.788 21.764 292.92 21.456 291.893 21.456C290.922 21.456 290.101 21.7547 289.429 22.352C288.776 22.9307 288.374 23.7427 288.225 24.788H295.589ZM306.43 20.896C306.934 20.0747 307.587 19.4307 308.39 18.964C309.211 18.4973 310.145 18.264 311.19 18.264V22.38H310.154C308.922 22.38 307.989 22.6693 307.354 23.248C306.738 23.8267 306.43 24.8347 306.43 26.272V34H302.51V18.488H306.43V20.896Z" fill="white"/>
</svg>
