<svg width="28" height="29" viewBox="0 0 28 29" fill="none" xmlns="http://www.w3.org/2000/svg">
<path d="M14 28.5C21.732 28.5 28 22.232 28 14.5C28 6.76801 21.732 0.5 14 0.5C6.26801 0.5 0 6.76801 0 14.5C0 22.232 6.26801 28.5 14 28.5Z" fill="#48B254"/>
<path fill-rule="evenodd" clip-rule="evenodd" d="M19.8459 6.947L20.6728 7.69775L10.2323 13.6582L5.17825 10.7489L5.65075 9.81L10.2323 12.4149L19.8459 6.947ZM17.7441 5.75L18.8536 6.3135L10.2323 11.2415L6.21775 8.96475L6.902 8.144L10.2323 10.0445L17.745 5.75H17.7441ZM21.4051 8.47213L22.0185 9.29375L10.2323 16.0286L4.54038 12.7902L4.80025 11.7578L10.2323 14.8553L21.4051 8.47213ZM23.1053 11.4996C23.4518 12.47 23.625 13.4859 23.625 14.5499C23.625 15.6139 23.4518 16.6473 23.1053 17.6474L22.869 18.2818C22.3839 19.4196 21.6866 20.4548 20.8145 21.332C19.932 22.1985 18.8887 22.8842 17.7433 23.3506C16.5314 23.8669 15.2801 24.125 13.9886 24.125C12.6814 24.125 11.4293 23.8669 10.2323 23.3506C9.10045 22.8722 8.06735 22.1877 7.1855 21.332C6.30335 20.4631 5.6047 19.4258 5.131 18.2818C4.63225 17.1005 4.37413 15.8317 4.375 14.5499V13.9164L10.2323 17.2256L22.5855 10.1854L23.1053 11.4996Z" fill="white"/>
</svg>
