<svg width="16" height="17" viewBox="0 0 16 17" fill="none" xmlns="http://www.w3.org/2000/svg">
<g clip-path="url(#clip0_400_5307)">
<path d="M12.0203 11.5777L14.8757 14.4323L13.9323 15.3757L11.0777 12.5203C10.0155 13.3718 8.69434 13.8349 7.33301 13.833C4.02101 13.833 1.33301 11.145 1.33301 7.83301C1.33301 4.52101 4.02101 1.83301 7.33301 1.83301C10.645 1.83301 13.333 4.52101 13.333 7.83301C13.3349 9.19434 12.8718 10.5155 12.0203 11.5777ZM10.683 11.083C11.5291 10.2129 12.0016 9.04663 11.9997 7.83301C11.9997 5.25434 9.91101 3.16634 7.33301 3.16634C4.75434 3.16634 2.66634 5.25434 2.66634 7.83301C2.66634 10.411 4.75434 12.4997 7.33301 12.4997C8.54663 12.5016 9.71293 12.0291 10.583 11.183L10.683 11.083Z" fill="#999999"/>
</g>
<defs>
<clipPath id="clip0_400_5307">
<rect width="16" height="16" fill="white" transform="translate(0 0.5)"/>
</clipPath>
</defs>
</svg>
