<svg width="28" height="29" viewBox="0 0 28 29" fill="none" xmlns="http://www.w3.org/2000/svg">
<path opacity="0.2" d="M27.9238 14.4994C27.9238 22.1907 21.689 28.4257 13.9978 28.4257C6.30648 28.4257 0.0715332 22.1907 0.0715332 14.4994C0.0715332 6.80819 6.30648 0.573242 13.9978 0.573242C21.6889 0.573242 27.9238 6.80819 27.9238 14.4994Z" fill="#00A478"/>
<path d="M12.5699 14.2564V11.8201H9.2655V9.68457H18.4993V11.8502H15.1949V14.2564H12.5699Z" fill="#00A478"/>
<path fill-rule="evenodd" clip-rule="evenodd" d="M7.84485 14.5266C7.84485 13.7145 10.5007 13.0527 13.8051 13.0527C17.1096 13.0527 19.7654 13.7145 19.7654 14.5266C19.7654 15.3387 17.1096 16.0004 13.8051 16.0004C10.5007 16.0004 7.84485 15.3387 7.84485 14.5266ZM19.2714 14.5269C19.0552 14.2261 17.2641 13.2937 13.8052 13.2937C10.3464 13.2937 8.55523 14.1961 8.33906 14.5269C8.55523 14.8277 10.3464 15.2789 13.8052 15.2789C17.2949 15.2789 19.0552 14.8277 19.2714 14.5269Z" fill="#00A478"/>
<path d="M15.1952 15.0072V13.3229C14.7628 13.2928 14.2996 13.2627 13.8364 13.2627C13.404 13.2627 13.0025 13.2627 12.6011 13.2928V14.9771C12.9717 14.9771 13.404 15.0072 13.8364 15.0072C14.2996 15.0373 14.7628 15.0373 15.1952 15.0072Z" fill="#00A478"/>
<path d="M13.8055 15.9996C13.3731 15.9996 12.9717 15.9996 12.5702 15.9695V20.4512H15.1643V15.9395C14.732 15.9695 14.2687 15.9996 13.8055 15.9996Z" fill="#00A478"/>
</svg>
